<?xml version="1.0" standalone="no"?>
<!DOCTYPE svg PUBLIC "-//W3C//DTD SVG 20010904//EN"
 "http://www.w3.org/TR/2001/REC-SVG-20010904/DTD/svg10.dtd">
<svg version="1.0" xmlns="http://www.w3.org/2000/svg"
 width="500.000000pt" height="556.000000pt" viewBox="0 0 500.000000 556.000000"
 preserveAspectRatio="xMidYMid meet">

<g transform="translate(0.000000,556.000000) scale(0.100000,-0.100000)"
fill="#000000" stroke="none">
<path d="M2515 4900 c-22 -11 -54 -39 -71 -63 -35 -47 -201 -350 -474 -867
-291 -549 -479 -896 -785 -1450 -113 -204 -260 -476 -350 -645 -265 -502 -453
-854 -598 -1118 -217 -396 -240 -454 -218 -544 23 -91 67 -150 141 -189 33
-18 69 -19 665 -19 l630 0 54 28 c97 51 131 98 250 341 318 648 381 773 401
791 21 19 37 20 241 20 l219 0 29 -30 c16 -16 88 -147 161 -290 349 -686 382
-741 475 -805 88 -61 93 -61 852 -58 649 3 690 4 723 22 78 41 127 110 137
194 8 69 -7 108 -110 302 -170 318 -220 414 -300 565 -118 226 -1277 2555
-1712 3440 -145 295 -193 365 -263 385 -49 13 -51 13 -97 -10z m77 -617 c15
-17 452 -894 714 -1433 350 -720 1066 -2137 1190 -2356 13 -23 26 -59 30 -81
5 -33 2 -44 -21 -71 l-27 -32 -279 0 -279 0 -29 27 c-16 16 -52 71 -79 123
-27 52 -89 172 -137 265 -48 94 -109 211 -135 260 -26 50 -115 223 -199 386
-83 163 -169 329 -190 370 l-39 74 -652 0 -651 0 -63 -121 c-35 -66 -118 -228
-186 -360 -67 -131 -158 -306 -200 -389 -43 -82 -128 -249 -189 -370 -62 -121
-123 -230 -137 -242 -25 -22 -31 -23 -252 -23 -240 1 -241 1 -275 50 -39 56
-22 102 155 436 47 87 118 222 158 299 253 485 514 978 725 1365 415 763 545
1004 820 1530 147 281 165 310 191 310 11 0 28 -8 36 -17z"/>
<path d="M2200 2706 c-135 -271 -245 -498 -245 -504 0 -12 966 -29 984 -18 9
6 -44 121 -304 651 -70 143 -138 284 -151 313 -13 28 -27 52 -31 51 -5 0 -118
-222 -253 -493z"/>
</g>
</svg>
